<svg width="1000" height="267" viewBox="0 0 1000 267" fill="none" xmlns="http://www.w3.org/2000/svg">
<path d="M239.901 163.303C230.994 163.303 222.286 162.207 213.777 160.017C205.269 157.688 198.488 154.812 193.437 151.389L203.806 128.383C208.592 131.533 214.376 134.135 221.156 136.189C227.936 138.106 234.583 139.065 241.098 139.065C254.26 139.065 260.841 135.709 260.841 128.999C260.841 125.849 259.046 123.59 255.456 122.221C251.867 120.851 246.349 119.687 238.904 118.729C230.13 117.359 222.884 115.784 217.168 114.004C211.451 112.224 206.465 109.074 202.211 104.555C198.09 100.036 196.029 93.5995 196.029 85.2464C196.029 78.2624 197.957 72.1 201.812 66.7593C205.801 61.2814 211.517 57.0361 218.962 54.0237C226.54 51.0108 235.448 49.5045 245.685 49.5045C253.263 49.5045 260.774 50.3946 268.219 52.175C275.797 53.8183 282.045 56.1461 286.965 59.159L276.595 81.9598C267.156 76.482 256.852 73.7433 245.685 73.7433C239.037 73.7433 234.052 74.7016 230.728 76.6191C227.404 78.5361 225.743 81.001 225.743 84.0139C225.743 87.4371 227.537 89.8338 231.127 91.2034C234.717 92.5725 240.433 93.8737 248.277 95.1062C257.052 96.6124 264.231 98.2557 269.814 100.036C275.398 101.679 280.251 104.761 284.372 109.28C288.494 113.799 290.554 120.098 290.554 128.178C290.554 135.025 288.56 141.119 284.572 146.459C280.583 151.8 274.734 155.977 267.023 158.99C259.445 161.865 250.404 163.303 239.901 163.303ZM409.857 51.1479V161.66H380.343V148.514C376.222 153.306 371.303 157.004 365.586 159.606C359.869 162.071 353.687 163.303 347.04 163.303C332.947 163.303 321.78 159.126 313.537 150.773C305.295 142.419 301.173 130.026 301.173 113.593V51.1479H332.283V108.869C332.283 126.671 339.528 135.573 354.02 135.573C361.465 135.573 367.447 133.108 371.968 128.178C376.488 123.111 378.748 115.647 378.748 105.788V51.1479H409.857ZM495.912 49.5045C509.209 49.5045 519.907 53.6129 528.019 61.8294C536.26 70.0459 540.383 82.2335 540.383 98.3928V161.66H509.273V103.323C509.273 94.5583 507.414 88.0534 503.69 83.8085C499.965 79.4261 494.583 77.2353 487.536 77.2353C479.692 77.2353 473.444 79.7686 468.791 84.8356C464.138 89.7655 461.811 97.1603 461.811 107.02V161.66H430.701V51.1479H460.415V64.0889C464.536 59.4327 469.655 55.8724 475.77 53.4075C481.886 50.8054 488.6 49.5045 495.912 49.5045ZM698.005 49.5045C711.436 49.5045 722.07 53.6129 729.912 61.8294C737.889 69.9088 741.877 82.0964 741.877 98.3928V161.66H710.768V103.323C710.768 94.5583 708.973 88.0534 705.383 83.8085C701.928 79.4261 696.943 77.2353 690.427 77.2353C683.118 77.2353 677.335 79.7003 673.077 84.6302C668.825 89.423 666.696 96.6124 666.696 106.199V161.66H635.586V103.323C635.586 85.931 628.806 77.2353 615.245 77.2353C608.066 77.2353 602.353 79.7003 598.095 84.6302C593.843 89.423 591.714 96.6124 591.714 106.199V161.66H560.604V51.1479H590.318V63.8835C594.306 59.2273 599.162 55.667 604.875 53.202C610.728 50.7371 617.11 49.5045 624.02 49.5045C631.598 49.5045 638.448 51.0791 644.56 54.2291C650.677 57.2415 655.598 61.6923 659.317 67.5809C663.704 61.8294 669.223 57.3786 675.869 54.2291C682.649 51.0791 690.028 49.5045 698.005 49.5045ZM805.058 49.5045C821.68 49.5045 834.443 53.6129 843.347 61.8294C852.256 69.9088 856.708 82.1652 856.708 98.5982V161.66H827.593V147.897C821.745 158.168 810.842 163.303 794.888 163.303C786.647 163.303 779.468 161.865 773.351 158.99C767.368 156.114 762.781 152.142 759.591 147.076C756.4 142.009 754.805 136.257 754.805 129.821C754.805 119.55 758.529 111.47 765.972 105.582C773.55 99.6936 785.186 96.7495 800.871 96.7495H825.599C825.599 89.7655 823.54 84.4248 819.417 80.7273C815.299 76.8928 809.117 74.9758 800.871 74.9758C795.157 74.9758 789.504 75.934 783.92 77.8516C778.471 79.6315 773.819 82.0964 769.96 85.2464L758.793 62.8564C764.646 58.6111 771.626 55.3245 779.732 52.9966C787.978 50.6683 796.419 49.5045 805.058 49.5045ZM802.665 141.735C807.985 141.735 812.706 140.502 816.824 138.037C820.947 135.435 823.874 131.67 825.599 126.74V115.442H804.261C791.498 115.442 785.116 119.756 785.116 128.383C785.116 132.491 786.647 135.778 789.703 138.243C792.894 140.571 797.216 141.735 802.665 141.735ZM876.89 51.1479H907.999V161.66H876.89V51.1479ZM892.444 35.7418C886.726 35.7418 882.075 34.03 878.485 30.6065C874.895 27.1829 873.101 22.9377 873.101 17.8709C873.101 12.8041 874.895 8.55885 878.485 5.13534C882.075 1.71178 886.726 0 892.444 0C898.158 0 902.814 1.6433 906.404 4.92992C909.993 8.21653 911.788 12.3248 911.788 17.2547C911.788 22.5954 909.993 27.046 906.404 30.6065C902.814 34.03 898.158 35.7418 892.444 35.7418ZM998.092 156.319C995.036 158.647 991.247 160.427 986.725 161.66C982.338 162.755 977.687 163.303 972.766 163.303C960.003 163.303 950.097 159.948 943.052 153.238C936.137 146.528 932.682 136.668 932.682 123.659V78.2624H916.131V53.6129H932.682V26.7037H963.792V53.6129H990.514V78.2624H963.792V123.248C963.792 127.903 964.924 131.533 967.182 134.135C969.575 136.6 972.9 137.832 977.153 137.832C982.074 137.832 986.262 136.462 989.717 133.724L998.092 156.319Z" fill="black"/>
<path d="M635.534 250.957C634.671 251.758 633.59 252.381 632.293 252.826C631.042 253.227 629.721 253.427 628.34 253.427C625.144 253.427 622.681 252.537 620.951 250.757C619.221 248.976 618.359 246.461 618.359 243.213V221.983H612.267V217.978H618.359V210.301H622.961V217.978H633.33V221.983H622.961V242.946C622.961 245.037 623.459 246.64 624.451 247.753C625.488 248.821 626.959 249.355 628.858 249.355C629.811 249.355 630.718 249.199 631.58 248.887C632.488 248.576 633.266 248.13 633.914 247.552L635.534 250.957ZM669.799 237.004H641.282C641.542 240.653 642.903 243.613 645.365 245.883C647.828 248.108 650.939 249.221 654.698 249.221C656.817 249.221 658.761 248.843 660.531 248.086C662.306 247.285 663.837 246.128 665.133 244.615L667.725 247.686C666.215 249.555 664.315 250.979 662.022 251.958C659.779 252.937 657.291 253.427 654.569 253.427C651.069 253.427 647.958 252.67 645.236 251.157C642.559 249.599 640.465 247.463 638.949 244.748C637.438 242.033 636.681 238.962 636.681 235.536C636.681 232.108 637.394 229.037 638.819 226.323C640.29 223.608 642.279 221.494 644.782 219.981C647.335 218.467 650.186 217.711 653.337 217.711C656.493 217.711 659.325 218.467 661.828 219.981C664.335 221.494 666.3 223.608 667.725 226.323C669.151 228.993 669.864 232.064 669.864 235.536L669.799 237.004ZM653.337 221.783C650.057 221.783 647.29 222.873 645.041 225.054C642.838 227.191 641.586 229.995 641.282 233.466H665.457C665.158 229.995 663.882 227.191 661.633 225.054C659.43 222.873 656.668 221.783 653.337 221.783ZM690.768 253.427C687.398 253.427 684.372 252.67 681.695 251.157C679.057 249.644 676.983 247.53 675.473 244.815C673.962 242.055 673.204 238.962 673.204 235.536C673.204 232.108 673.962 229.037 675.473 226.323C676.983 223.608 679.057 221.494 681.695 219.981C684.372 218.467 687.398 217.711 690.768 217.711C693.705 217.711 696.322 218.312 698.611 219.513C700.944 220.67 702.779 222.384 704.12 224.654L700.685 227.057C699.563 225.321 698.137 224.03 696.407 223.185C694.677 222.295 692.797 221.85 690.768 221.85C688.306 221.85 686.082 222.428 684.093 223.586C682.148 224.698 680.613 226.3 679.491 228.392C678.409 230.484 677.871 232.865 677.871 235.536C677.871 238.25 678.409 240.653 679.491 242.746C680.613 244.793 682.148 246.395 684.093 247.552C686.082 248.665 688.306 249.221 690.768 249.221C692.797 249.221 694.677 248.798 696.407 247.953C698.137 247.107 699.563 245.816 700.685 244.081L704.12 246.484C702.779 248.754 700.944 250.49 698.611 251.691C696.277 252.848 693.665 253.427 690.768 253.427ZM727.432 217.711C731.709 217.711 735.1 219.001 737.607 221.583C740.155 224.12 741.431 227.836 741.431 232.732V253.093H736.83V233.199C736.83 229.549 735.942 226.768 734.172 224.854C732.397 222.94 729.87 221.983 726.589 221.983C722.915 221.983 719.998 223.118 717.84 225.388C715.721 227.613 714.664 230.706 714.664 234.668V253.093H710.062V203.558H714.664V224.12C715.915 222.072 717.645 220.492 719.849 219.38C722.052 218.267 724.58 217.711 727.432 217.711ZM768.697 217.711C772.974 217.711 776.37 219.001 778.872 221.583C781.425 224.12 782.696 227.836 782.696 232.732V253.093H778.095V233.199C778.095 229.549 777.212 226.768 775.437 224.854C773.667 222.94 771.14 221.983 767.854 221.983C764.185 221.983 761.268 223.118 759.105 225.388C756.991 227.613 755.929 230.706 755.929 234.668V253.093H751.327V217.978H755.735V224.454C756.991 222.317 758.716 220.67 760.92 219.513C763.168 218.312 765.76 217.711 768.697 217.711ZM806.662 253.427C803.376 253.427 800.415 252.67 797.782 251.157C795.145 249.599 793.071 247.463 791.56 244.748C790.045 242.033 789.292 238.962 789.292 235.536C789.292 232.108 790.045 229.037 791.56 226.323C793.071 223.608 795.145 221.494 797.782 219.981C800.415 218.467 803.376 217.711 806.662 217.711C809.942 217.711 812.903 218.467 815.541 219.981C818.173 221.494 820.227 223.608 821.698 226.323C823.208 229.037 823.966 232.108 823.966 235.536C823.966 238.962 823.208 242.033 821.698 244.748C820.227 247.463 818.173 249.599 815.541 251.157C812.903 252.67 809.942 253.427 806.662 253.427ZM806.662 249.221C809.079 249.221 811.238 248.665 813.143 247.552C815.087 246.395 816.598 244.77 817.68 242.679C818.756 240.587 819.3 238.206 819.3 235.536C819.3 232.865 818.756 230.484 817.68 228.392C816.598 226.3 815.087 224.698 813.143 223.586C811.238 222.428 809.079 221.85 806.662 221.85C804.239 221.85 802.06 222.428 800.116 223.586C798.211 224.698 796.701 226.3 795.579 228.392C794.497 230.484 793.958 232.865 793.958 235.536C793.958 238.206 794.497 240.587 795.579 242.679C796.701 244.77 798.211 246.395 800.116 247.552C802.06 248.665 804.239 249.221 806.662 249.221ZM830.766 203.558H835.368V253.093H830.766V203.558ZM859.513 253.427C856.232 253.427 853.271 252.67 850.634 251.157C848.001 249.599 845.927 247.463 844.412 244.748C842.901 242.033 842.143 238.962 842.143 235.536C842.143 232.108 842.901 229.037 844.412 226.323C845.927 223.608 848.001 221.494 850.634 219.981C853.271 218.467 856.232 217.711 859.513 217.711C862.798 217.711 865.76 218.467 868.392 219.981C871.029 221.494 873.083 223.608 874.549 226.323C876.065 229.037 876.818 232.108 876.818 235.536C876.818 238.962 876.065 242.033 874.549 244.748C873.083 247.463 871.029 249.599 868.392 251.157C865.76 252.67 862.798 253.427 859.513 253.427ZM859.513 249.221C861.936 249.221 864.095 248.665 865.994 247.552C867.938 246.395 869.454 244.77 870.531 242.679C871.613 240.587 872.151 238.206 872.151 235.536C872.151 232.865 871.613 230.484 870.531 228.392C869.454 226.3 867.938 224.698 865.994 223.586C864.095 222.428 861.936 221.85 859.513 221.85C857.095 221.85 854.911 222.428 852.967 223.586C851.067 224.698 849.557 226.3 848.43 228.392C847.353 230.484 846.81 232.865 846.81 235.536C846.81 238.206 847.353 240.587 848.43 242.679C849.557 244.77 851.067 246.395 852.967 247.552C854.911 248.665 857.095 249.221 859.513 249.221ZM915.186 217.978V248.821C915.186 254.784 913.76 259.19 910.909 262.039C908.097 264.932 903.844 266.378 898.141 266.378C894.985 266.378 891.984 265.888 889.132 264.91C886.32 263.975 884.032 262.662 882.262 260.971L884.595 257.366C886.235 258.879 888.224 260.058 890.558 260.904C892.931 261.749 895.419 262.172 898.011 262.172C902.328 262.172 905.504 261.126 907.538 259.035C909.567 256.987 910.584 253.783 910.584 249.421V244.949C909.159 247.174 907.279 248.865 904.946 250.022C902.653 251.179 900.105 251.758 897.298 251.758C894.097 251.758 891.181 251.046 888.548 249.622C885.956 248.153 883.902 246.128 882.391 243.547C880.921 240.92 880.188 237.961 880.188 234.668C880.188 231.374 880.921 228.437 882.391 225.856C883.902 223.274 885.956 221.271 888.548 219.847C891.141 218.423 894.058 217.711 897.298 217.711C900.19 217.711 902.807 218.312 905.14 219.513C907.473 220.715 909.353 222.451 910.779 224.721V217.978H915.186ZM897.752 247.552C900.215 247.552 902.438 247.018 904.427 245.95C906.412 244.837 907.947 243.302 909.029 241.344C910.151 239.385 910.714 237.16 910.714 234.668C910.714 232.175 910.151 229.972 909.029 228.059C907.947 226.1 906.412 224.587 904.427 223.519C902.483 222.406 900.255 221.85 897.752 221.85C895.289 221.85 893.06 222.384 891.076 223.452C889.132 224.52 887.596 226.033 886.475 227.992C885.393 229.95 884.854 232.175 884.854 234.668C884.854 237.16 885.393 239.385 886.475 241.344C887.596 243.302 889.132 244.837 891.076 245.95C893.06 247.018 895.289 247.552 897.752 247.552ZM925.461 217.978H930.063V253.093H925.461V217.978ZM927.794 210.301C926.842 210.301 926.045 209.967 925.396 209.299C924.748 208.632 924.424 207.831 924.424 206.896C924.424 206.005 924.748 205.227 925.396 204.559C926.045 203.892 926.842 203.558 927.794 203.558C928.742 203.558 929.544 203.892 930.192 204.559C930.841 205.182 931.165 205.939 931.165 206.829C931.165 207.808 930.841 208.632 930.192 209.299C929.544 209.967 928.742 210.301 927.794 210.301ZM969.957 237.004H941.44C941.699 240.653 943.06 243.613 945.523 245.883C947.986 248.108 951.097 249.221 954.856 249.221C956.975 249.221 958.919 248.843 960.689 248.086C962.459 247.285 963.994 246.128 965.29 244.615L967.883 247.686C966.372 249.555 964.468 250.979 962.179 251.958C959.931 252.937 957.448 253.427 954.726 253.427C951.226 253.427 948.115 252.67 945.393 251.157C942.716 249.599 940.617 247.463 939.107 244.748C937.596 242.033 936.838 238.962 936.838 235.536C936.838 232.108 937.551 229.037 938.977 226.323C940.448 223.608 942.432 221.494 944.94 219.981C947.487 218.467 950.339 217.711 953.495 217.711C956.651 217.711 959.477 218.467 961.985 219.981C964.493 221.494 966.457 223.608 967.883 226.323C969.309 228.993 970.022 232.064 970.022 235.536L969.957 237.004ZM953.495 221.783C950.209 221.783 947.447 222.873 945.199 225.054C942.995 227.191 941.744 229.995 941.44 233.466H965.615C965.31 229.995 964.039 227.191 961.791 225.054C959.587 222.873 956.82 221.783 953.495 221.783ZM985.935 253.427C983.168 253.427 980.511 253.026 977.964 252.225C975.456 251.38 973.492 250.334 972.066 249.088L974.14 245.349C975.566 246.506 977.355 247.463 979.519 248.22C981.678 248.932 983.926 249.288 986.259 249.288C989.37 249.288 991.659 248.798 993.13 247.819C994.64 246.795 995.398 245.371 995.398 243.547C995.398 242.256 994.984 241.254 994.166 240.543C993.344 239.786 992.307 239.229 991.056 238.874C989.799 238.473 988.139 238.095 986.065 237.739C983.298 237.205 981.075 236.67 979.389 236.136C977.704 235.558 976.254 234.601 975.047 233.266C973.88 231.931 973.297 230.083 973.297 227.725C973.297 224.787 974.484 222.384 976.862 220.515C979.235 218.646 982.54 217.711 986.778 217.711C988.982 217.711 991.185 218.022 993.389 218.646C995.592 219.224 997.407 220.003 998.833 220.982L996.824 224.787C994.012 222.785 990.667 221.783 986.778 221.783C983.837 221.783 981.613 222.317 980.102 223.385C978.632 224.454 977.899 225.856 977.899 227.591C977.899 228.926 978.308 229.995 979.13 230.796C979.993 231.597 981.05 232.198 982.306 232.598C983.557 232.954 985.287 233.333 987.491 233.733C990.213 234.267 992.392 234.801 994.037 235.335C995.677 235.869 997.083 236.781 998.25 238.072C999.416 239.363 1000 241.143 1000 243.413C1000 246.484 998.743 248.932 996.24 250.757C993.778 252.537 990.343 253.427 985.935 253.427Z" fill="black"/>
<path d="M149.565 28.0856H0V181.31H149.565V28.0856Z" fill="#004ED7"/>
</svg>
